<?xml version="1.0" standalone="no"?><!DOCTYPE svg PUBLIC "-//W3C//DTD SVG 1.1//EN" "http://www.w3.org/Graphics/SVG/1.1/DTD/svg11.dtd"><svg t="1631432368609" class="icon" viewBox="0 0 1024 1024" version="1.1" xmlns="http://www.w3.org/2000/svg" p-id="1646" xmlns:xlink="http://www.w3.org/1999/xlink" width="200" height="200"><defs><style type="text/css"></style></defs><path d="M577.69120075 513.76747625L977.14083404 114.31784297c18.41121097-18.41121097 18.41121097-48.3110176 0-66.72222857s-48.3110176-18.41121097-66.72222857 0L510.96897217 447.19253738 111.51933889 47.5956144c-18.41121097-18.41121097-48.3110176-18.41121097-66.72222856 0s-18.41121097 48.3110176 0 66.72222857l399.59692297 399.59692297-399.59692297 399.4496333c-18.41121097 18.41121097-18.41121097 48.3110176 0 66.72222857s48.3110176 18.41121097 66.72222856 0l399.59692298-399.59692299 399.59692299 399.59692299c18.41121097 18.41121097 48.3110176 18.41121097 66.72222857 0s18.41121097-48.3110176 0-66.72222857L577.69120075 513.76747625z" p-id="1647"></path></svg>