<?xml version="1.0" standalone="no"?><!DOCTYPE svg PUBLIC "-//W3C//DTD SVG 1.1//EN" "http://www.w3.org/Graphics/SVG/1.1/DTD/svg11.dtd"><svg t="1631438768288" class="icon" viewBox="0 0 1024 1024" version="1.1" xmlns="http://www.w3.org/2000/svg" p-id="1716" xmlns:xlink="http://www.w3.org/1999/xlink" width="200" height="200"><defs><style type="text/css"></style></defs><path d="M128.7841088 381.39447467c-52.82224747 0-95.651568 42.7681952-95.651568 95.65811733 0 52.86699947 42.8293216 95.63410453 95.651568 95.63410453 52.82552213 0 95.65266027-42.7681952 95.65266027-95.63410453C224.436768 424.16267093 181.60962987 381.39447467 128.7841088 381.39447467L128.7841088 381.39447467zM511.39584 381.39447467c-52.82552213 0-95.65266027 42.7681952-95.65266027 95.65811733 0 52.86699947 42.82713813 95.63410453 95.65266027 95.63410453 52.82224747 0 95.651568-42.7681952 95.651568-95.63410453C607.047408 424.16267093 564.21808747 381.39447467 511.39584 381.39447467L511.39584 381.39447467zM894.0042976 381.39447467c-52.82224747 0-95.651568 42.7681952-95.651568 95.65811733 0 52.86699947 42.8293216 95.63410453 95.651568 95.63410453 52.82552213 0 95.65266027-42.7681952 95.65266027-95.63410453C989.6558656 424.16267093 946.82981867 381.39447467 894.0042976 381.39447467L894.0042976 381.39447467zM894.0042976 381.39447467" p-id="1717"></path></svg>