<?xml version="1.0" standalone="no"?><!DOCTYPE svg PUBLIC "-//W3C//DTD SVG 1.1//EN" "http://www.w3.org/Graphics/SVG/1.1/DTD/svg11.dtd"><svg t="1631438740954" class="icon" viewBox="0 0 1024 1024" version="1.1" xmlns="http://www.w3.org/2000/svg" p-id="1585" xmlns:xlink="http://www.w3.org/1999/xlink" width="200" height="200"><defs><style type="text/css"></style></defs><path d="M128 800V960a32 32 0 1 1-64 0v-256a32 32 0 0 1 35.968-31.744l256 32a32 32 0 1 1-7.936 63.488l-180.608-22.592A416 416 0 0 0 928 512h64A480 480 0 0 1 128 800z m771.968-570.688v-165.12a32 32 0 1 1 64 0v256a32 32 0 0 1-35.968 31.808l-256-32a32 32 0 0 1 7.936-63.488l176.448 22.016A416 416 0 0 0 96 512H31.936a480 480 0 0 1 867.968-282.688z" p-id="1586"></path></svg>