<?xml version="1.0" standalone="no"?><!DOCTYPE svg PUBLIC "-//W3C//DTD SVG 1.1//EN" "http://www.w3.org/Graphics/SVG/1.1/DTD/svg11.dtd"><svg t="1675934247099" class="icon" viewBox="0 0 1024 1024" version="1.1" xmlns="http://www.w3.org/2000/svg" p-id="2455" xmlns:xlink="http://www.w3.org/1999/xlink" width="200" height="200"><path d="M463.45481443 609.09036999v-145.63555556h97.09037114v145.63555556h242.72592554a48.54518557 48.54518557 0 0 1 48.54518556 48.54518556v291.27111112a48.54518557 48.54518557 0 0 1-48.54518556 48.54518556H220.72888889a48.54518557 48.54518557 0 0 1-48.54518556-48.54518556v-291.27111112a48.54518557 48.54518557 0 0 1 48.54518556-48.54518556h242.72592554zM51.30619221 358.45157888C115.62856334 165.5815589 297.62446222 26.54814777 512 26.54814777s396.41998222 139.03340999 460.69380779 331.90343111l-92.13876224 30.68055779a388.50711666 388.50711666 0 0 0-737.1100911 0l-92.09021667-30.68055779z m184.27752334 61.40966002a291.41674667 291.41674667 0 0 1 552.8325689 0l-92.13876111 30.72910222a194.27783111 194.27783111 0 0 0-368.55504668 0l-92.13876111-30.72910222zM269.27407445 706.18074112v194.18073998h485.4518511v-194.18073998H269.27407445z" p-id="2456"/></svg>