<svg class="icon" viewBox="0 0 1024 1024" xmlns="http://www.w3.org/2000/svg" width="200" height="200"><defs><style/></defs><path d="M520.125 961.994c247.446 0 441.869-200.314 441.869-441.87S761.68 78.257 520.124 78.257 78.257 278.57 78.257 520.125c0 129.615 47.132 182.639 159.072 217.988 11.784 5.892 17.675 5.892 29.458 11.784 5.892 0 29.458 5.891 29.458 11.783 70.7 23.566 106.049 35.35 135.507 70.699 23.566 23.566 41.24 53.024 58.916 82.482 5.891 11.783 11.783 23.566 11.783 29.458 11.783 0 11.783 11.783 17.675 17.675zm0 58.916c-82.483 0-29.458-58.916-123.724-153.182-88.374-88.374-377.061-35.35-377.061-347.603C19.34 243.22 243.22 19.34 520.125 19.34s500.785 223.88 500.785 500.785-223.88 500.785-500.785 500.785zm100.157-147.29c-58.916 0-106.049-47.133-106.049-106.049s47.133-100.157 106.049-100.157S726.33 714.547 726.33 767.571 679.197 873.62 620.282 873.62zm0-58.916c23.566 0 47.132-17.675 47.132-47.133s-17.674-41.24-47.132-41.24-47.133 17.674-47.133 41.24 23.566 47.133 47.133 47.133zm47.132-500.785c-35.35 0-58.916-23.566-58.916-58.916s23.567-58.916 58.916-58.916 58.916 23.567 58.916 58.916-23.566 58.916-58.916 58.916zM502.45 266.786c-35.35 0-58.916-23.566-58.916-58.916s23.566-58.915 58.916-58.915 58.916 23.566 58.916 58.915-23.567 58.916-58.916 58.916zm282.796 164.965c-35.35 0-58.916-23.567-58.916-58.916s23.567-58.916 58.916-58.916 58.916 23.566 58.916 58.916-23.566 58.916-58.916 58.916zM343.377 313.919c-35.35 0-58.916-23.566-58.916-58.916s23.566-58.916 58.916-58.916 58.916 23.567 58.916 58.916-23.566 58.916-58.916 58.916z"/></svg>