<svg class="icon" viewBox="0 0 1024 1024" xmlns="http://www.w3.org/2000/svg" width="200" height="200"><defs><style/></defs><path d="M872 902H152a30 30 0 01-30-30V152a30 30 0 0160 0v690h690a30 30 0 010 60z"/><path d="M362 872a30 30 0 01-30-30V542a30 30 0 0160 0v300a30 30 0 01-30 30zm210 0a30 30 0 01-30-30V452a30 30 0 0160 0v390a30 30 0 01-30 30zm210 0a30 30 0 01-30-30V392a30 30 0 0160 0v450a30 30 0 01-30 30zM272 422a30.6 30.6 0 01-24-12 30 30 0 016-42l240-180a29.4 29.4 0 0139 0l102 101.4L854 128a30 30 0 1136 48L650 356a29.4 29.4 0 01-39-3l-99-101.4L290 416a29.4 29.4 0 01-18 6z"/></svg>