<svg class="icon" viewBox="0 0 1024 1024" xmlns="http://www.w3.org/2000/svg" width="200" height="200"><defs><style/></defs><path d="M828.406 248.328v60.645l52.735 44.824V221.96c0-15.82-10.547-26.367-26.368-26.367H696.57l60.645 52.734h71.191zM538.367 142.86h-52.734L90.125 485.633V512c0 15.82 10.547 26.367 26.367 26.367h79.102v316.406c0 15.82 10.547 26.368 26.367 26.368h210.937c15.82 0 26.368-10.547 26.368-26.368V617.47h105.468v237.304c0 15.82 10.547 26.368 26.368 26.368h210.937c15.82 0 26.367-10.547 26.367-26.368V538.367h79.102c15.82 0 26.367-10.547 26.367-26.367v-26.367L538.367 142.859zM802.04 485.633c-15.82 0-26.367 10.547-26.367 26.367v316.406H617.469V591.102c0-15.82-10.547-26.368-26.367-26.368H432.898c-15.82 0-26.367 10.547-26.367 26.368v237.304H248.328V512c0-15.82-10.547-26.367-26.367-26.367H174.5L512 195.593l337.5 290.04h-47.46z"/></svg>