<?xml version="1.0" standalone="no"?><!DOCTYPE svg PUBLIC "-//W3C//DTD SVG 1.1//EN" "http://www.w3.org/Graphics/SVG/1.1/DTD/svg11.dtd"><svg t="1583804647794" class="icon" viewBox="0 0 1024 1024" version="1.1" xmlns="http://www.w3.org/2000/svg" p-id="1332" xmlns:xlink="http://www.w3.org/1999/xlink" width="200" height="200"><defs><style type="text/css"></style></defs><path d="M348.16 202.24v-179.2l-256 217.6H307.2c20.48 0 40.96-17.92 40.96-38.4z m-58.88 2.56H166.4l145.92-110.08v89.6c-2.56 10.24-12.8 20.48-23.04 20.48z m440.32 399.36H291.84c-10.24 0-17.92 10.24-17.92 25.6v25.6c0 12.8 7.68 25.6 17.92 25.6h437.76c10.24 0 17.92-10.24 17.92-25.6v-25.6c0-15.36-7.68-25.6-17.92-25.6zM860.16 23.04H360.96v202.24c0 17.92-17.92 38.4-35.84 38.4h-230.4v704c0 17.92 17.92 38.4 35.84 38.4h727.04c17.92 0 35.84-23.04 35.84-40.96V56.32c0-17.92-15.36-33.28-33.28-33.28z m-5.12 906.24c0 17.92-15.36 38.4-33.28 38.4H161.28c-17.92 2.56-33.28-17.92-33.28-35.84v-614.4h209.92c15.36 0 69.12-56.32 69.12-71.68V61.44h417.28c15.36 0 28.16 12.8 28.16 30.72v837.12z m-125.44-504.32H291.84c-10.24 0-17.92 10.24-17.92 23.04v23.04c0 12.8 7.68 23.04 17.92 23.04h437.76c10.24 0 17.92-10.24 17.92-23.04v-23.04c0-12.8-7.68-23.04-17.92-23.04z m0 360.96H291.84c-10.24 0-17.92 10.24-17.92 23.04v25.6c0 12.8 7.68 25.6 17.92 25.6h437.76c10.24 0 17.92-10.24 17.92-25.6v-25.6c0-10.24-7.68-23.04-17.92-23.04z" fill="" p-id="1333"></path></svg>