<?xml version="1.0" standalone="no"?><!DOCTYPE svg PUBLIC "-//W3C//DTD SVG 1.1//EN" "http://www.w3.org/Graphics/SVG/1.1/DTD/svg11.dtd"><svg t="1583804615993" class="icon" viewBox="0 0 1024 1024" version="1.1" xmlns="http://www.w3.org/2000/svg" p-id="1088" xmlns:xlink="http://www.w3.org/1999/xlink" width="200" height="200"><defs><style type="text/css"></style></defs><path d="M216.17777813 284.4444448c-13.65333333 0-22.7555552 9.10222187-22.7555552 22.7555552 0 13.65333333 9.10222187 22.7555552 22.7555552 22.7555552 13.65333333 0 22.7555552-9.10222187 22.7555552-22.7555552C238.93333333 293.54666667 229.83111147 284.4444448 216.17777813 284.4444448zM125.1555552 284.4444448c-13.65333333 0-22.7555552 9.10222187-22.7555552 22.7555552 0 13.65333333 9.10222187 22.7555552 22.7555552 22.7555552 13.65333333 0 22.7555552-9.10222187 22.7555552-22.7555552C147.91111147 293.54666667 138.80888853 284.4444448 125.1555552 284.4444448zM716.8 284.4444448L398.22222187 284.4444448c-13.65333333 0-22.7555552 9.10222187-22.7555552 22.7555552 0 13.65333333 9.10222187 22.7555552 22.7555552 22.7555552l318.57777813 0c13.65333333 0 22.7555552-9.10222187 22.7555552-22.7555552C739.5555552 293.54666667 730.45333333 284.4444448 716.8 284.4444448zM921.6 11.37777813L284.4444448 11.37777813c-50.06222187 0-91.02222187 40.96-91.02222187 91.02222187l0 22.7555552c0 13.65333333 9.10222187 22.7555552 22.7555552 22.7555552 13.65333333 0 22.7555552-9.10222187 22.7555552-22.7555552L238.93333333 102.4c0-25.03111147 20.48-45.51111147 45.51111147-45.51111147l637.1555552 0c25.03111147 0 45.51111147 20.48 45.51111147 45.51111147l0 637.1555552c0 25.03111147-20.48 45.51111147-45.51111147 45.51111147l-22.7555552 0c-13.65333333 0-22.7555552 9.10222187-22.7555552 22.7555552s9.10222187 22.7555552 22.7555552 22.7555552l22.7555552 0c50.06222187 0 91.02222187-40.96 91.02222187-91.02222187L1012.62222187 102.4C1012.62222187 52.33777813 971.66222187 11.37777813 921.6 11.37777813zM307.2 284.4444448c-13.65333333 0-22.7555552 9.10222187-22.7555552 22.7555552 0 13.65333333 9.10222187 22.7555552 22.7555552 22.7555552 13.65333333 0 22.7555552-9.10222187 22.7555552-22.7555552C329.9555552 293.54666667 320.85333333 284.4444448 307.2 284.4444448zM739.5555552 193.42222187L102.4 193.42222187c-50.06222187 0-91.02222187 40.96-91.02222187 91.02222186l0 637.1555552c0 50.06222187 40.96 91.02222187 91.02222187 91.02222187l637.1555552 0c50.06222187 0 91.02222187-40.96 91.02222187-91.02222187L830.57777813 284.4444448C830.57777813 234.38222187 789.61777813 193.42222187 739.5555552 193.42222187zM785.06666667 921.6c0 25.03111147-20.48 45.51111147-45.51111147 45.51111147L102.4 967.11111147c-25.03111147 0-45.51111147-20.48-45.51111147-45.51111147L56.88888853 420.97777813l728.17777814 0L785.06666667 921.6zM785.06666667 375.46666667L56.88888853 375.46666667l0-91.02222187c0-25.03111147 20.48-45.51111147 45.51111147-45.51111147l637.1555552 0c25.03111147 0 45.51111147 20.48 45.51111147 45.51111147L785.06666667 375.46666667z" p-id="1089"></path></svg>