<svg class="icon" viewBox="0 0 1024 1024" xmlns="http://www.w3.org/2000/svg" width="200" height="200"><defs><style/></defs><path d="M900.645 467.198L790.683 357.236c-4.01-4.01-9.33-6.169-14.96-6.169s-10.95 2.16-14.96 6.17L473.368 644.632a21.344 21.344 0 00-5.398 9.176l-42.874 151.294c-2.082 7.326-.077 15.191 5.32 20.589 3.933 4.01 9.408 6.246 15.037 6.246 1.851 0 3.702-.231 5.475-.694l152.836-41.332c3.548-1.003 6.786-2.853 9.408-5.475L900.645 497.04c4.01-4.01 6.169-9.33 6.169-14.96 0-5.629-2.236-10.872-6.17-14.882zM507.527 695.295l54.75 54.75-76.11 20.589 21.36-75.339zm97.47 27.607l-70.018-70.018 240.744-240.821 70.018 70.018L604.997 722.9z"/><path d="M783.434 780.813c-13.648 0-24.675 11.027-24.675 24.676 0 29.07-23.597 52.667-52.668 52.667H166.538V165.921h378.235l148.209 149.135c9.639 9.639 25.216 9.716 34.932.077 9.639-9.64 9.716-25.216.077-34.932L565.284 116.492H117.186v791.016h588.905c56.215 0 102.02-45.728 102.02-102.02 0-13.648-11.028-24.675-24.677-24.675z"/><path d="M437.972 266.167H240.566c-13.65 0-24.676 11.027-24.676 24.676s11.027 24.675 24.676 24.675h197.406c13.65 0 24.676-11.027 24.676-24.675s-11.027-24.676-24.676-24.676zM437.972 414.222H240.566c-13.65 0-24.676 11.027-24.676 24.676s11.027 24.676 24.676 24.676h197.406c13.65 0 24.676-11.027 24.676-24.676s-11.027-24.676-24.676-24.676zM437.972 562.277H240.566c-13.65 0-24.676 11.027-24.676 24.676s11.027 24.676 24.676 24.676h197.406c13.65 0 24.676-11.027 24.676-24.676s-11.027-24.676-24.676-24.676z"/></svg>