<svg class="icon" viewBox="0 0 1031 1024" xmlns="http://www.w3.org/2000/svg" width="201.367" height="200"><defs><style/></defs><path d="M512 675.147c-88.99 0-163.147-74.158-163.147-163.147S423.011 348.853 512 348.853 675.147 423.011 675.147 512 600.989 675.147 512 675.147zm0-276.855c-64.27 0-113.708 49.438-113.708 113.708S447.73 625.708 512 625.708 625.708 576.27 625.708 512 576.27 398.292 512 398.292z"/><path d="M556.495 907.508h-88.99c-19.775 0-39.55-14.832-39.55-39.551l-4.944-69.214c-19.776-4.944-39.551-14.831-54.383-24.72L319.19 818.52c-14.832 14.831-39.55 14.831-54.382 0l-64.27-59.327c-14.832-14.831-14.832-39.55 0-54.382l44.494-49.438c-9.887-19.776-14.831-34.607-24.719-54.383l-64.27-4.944c-24.72 0-39.55-14.831-39.55-39.55v-88.99c0-19.775 14.83-39.55 39.55-39.55l69.214-4.944c4.944-19.776 14.831-39.551 24.72-54.383L205.48 319.19c-14.831-4.944-14.831-14.832-14.831-24.72 0-9.887 4.944-19.775 9.888-29.662l64.27-64.27c14.831-14.832 39.55-14.832 54.382 0l49.438 44.494c19.776-9.887 34.607-14.831 54.383-24.719l4.944-69.214c0-19.775 14.831-34.607 39.55-34.607h93.933c19.776 0 39.551 14.832 39.551 39.551l4.944 69.214c19.775 4.944 39.55 14.831 54.382 24.72l49.439-44.496c14.831-14.831 39.55-14.831 54.382 0l59.326 59.327c14.832 14.831 14.832 39.55 0 54.382l-44.494 49.438c9.887 19.776 14.831 34.607 24.719 54.383l69.214 4.944c19.775 0 39.55 19.775 39.55 39.55v93.933c0 19.776-14.83 39.551-39.55 39.551l-69.214 4.944c-4.944 19.775-14.832 39.55-24.72 54.382l44.495 49.439c4.944 4.944 9.888 14.831 9.888 24.72s-4.944 19.775-9.888 29.662l-64.27 59.326c-14.831 14.832-39.55 14.832-54.382 0l-49.438-44.494c-19.776 9.887-34.607 14.831-54.383 24.719l-4.944 69.214c0 19.775-14.831 34.607-39.55 34.607zm-79.102-49.439h74.158l4.944-93.933 14.831-4.944c24.72-4.943 49.439-14.831 74.158-29.663l14.831-9.887 69.214 64.27 49.439-49.439-59.326-74.158 9.887-14.831c14.832-24.72 24.72-49.439 29.663-74.158l4.944-19.775 93.933-4.944v-69.214l-93.933-4.944-4.944-19.775c-4.943-24.72-14.831-49.439-29.663-74.158l-9.887-14.831 64.27-69.214-49.439-49.439-74.158 59.326-14.831-9.887c-24.72-14.832-49.439-24.72-74.158-29.663l-19.775-4.944-4.944-93.933h-69.214l-4.944 93.933-19.775 4.944c-24.72 4.943-49.439 14.831-74.158 29.663l-14.831 9.887-69.214-64.27-49.439 49.439 59.326 74.158-9.887 14.831c-9.888 24.72-24.72 49.439-29.663 74.158l-4.944 19.775-93.933 4.944v74.158l93.933 4.944 4.944 14.831c4.943 24.72 14.831 49.439 29.663 74.158l9.887 14.831-64.27 69.214 49.439 49.439 74.158-59.326 14.831 9.887c24.72 14.832 49.439 24.72 74.158 29.663l19.775 4.944 4.944 93.933z"/></svg>